<?xml version="1.0" encoding="UTF-8" standalone="no"?>
<!-- Created with Inkscape (http://www.inkscape.org/) -->
<svg
   xmlns:svg="http://www.w3.org/2000/svg"
   xmlns="http://www.w3.org/2000/svg"
   xmlns:xlink="http://www.w3.org/1999/xlink"
   version="1.0"
   width="1326"
   height="1291"
   id="svg2226">
  <defs
     id="defs2229" />
  <image
     xlink:href="Tablero1024.JPG"
     x="-0.99811405"
     y="-0.22559324"
     width="727.72754"
     height="708.51904"
     id="image2233" />
  <g
     id="layer1" />
  <g
     style="display:inline"
     id="enlaces">
    <a
       xlink:href="tableroMenu.jsp?territorio=Ringwood"
       xlink:title="Ringwood"
       id="linkRingwood">
      <path
         d="M -0.058433602,0.71408684 L 111.76354,-0.22559361 L 116.46194,8.2315307 L 109.88418,19.507696 L 118.3413,32.663222 L 107.06514,50.517151 L 87.331849,56.155231 L 55.382716,53.336192 L 48.80495,58.974275 L 49.744631,73.06948 L 20.614537,97.501171 L 0.88124686,97.501171 L -0.058433602,0.71408684 z "
         style="fill:#000000;fill-opacity:0;fill-rule:evenodd;stroke:#000000;stroke-width:0.54881418px;stroke-linecap:butt;stroke-linejoin:miter;stroke-opacity:0"
         id="path2237" />
    </a>
    <a
       xlink:href="tableroMenu.jsp?territorio=Morris"
       xlink:title="Morris"
       id="linkMorris">
      <path
         d="M -0.058433602,195.22794 L -0.99811406,98.440856 L 14.976454,98.440856 L 50.684311,75.888524 L 49.744631,61.793314 L 54.443031,55.215552 L 86.39217,57.094916 L 101.42705,80.586928 L 133.37619,88.10437 L 142.77299,107.83766 L 137.13491,148.24392 L 145.59204,175.49465 L 145.59204,202.74538 L 108.00482,189.58986 L 63.839838,191.46922 L 45.985909,177.37401 L 30.951021,177.37401 L -0.058433602,195.22794 z "
         style="fill:#000000;fill-opacity:0;fill-rule:evenodd;stroke:#000000;stroke-width:0.54881418px;stroke-linecap:butt;stroke-linejoin:miter;stroke-opacity:0"
         id="path3212" />
    </a>
    <a
       xlink:href="tableroMenu.jsp?territorio=Paterson"
       xlink:title="Paterson"
       id="linkPaterson">
      <path
         d="M 111.76354,0.71408684 L 275.26794,0.71408684 L 288.42347,14.809294 L 287.48379,22.326738 L 276.20762,42.060027 L 269.62986,50.517151 L 238.6204,59.913955 L 196.33478,64.612358 L 167.20469,80.586928 L 133.37619,89.04405 L 101.42705,79.647243 L 85.45249,54.275873 L 107.06514,48.63779 L 119.28098,31.723542 L 110.82386,17.628335 L 118.3413,5.4124892 L 111.76354,0.71408684 z "
         style="fill:#000000;fill-opacity:0;fill-rule:evenodd;stroke:#000000;stroke-width:0.54881418px;stroke-linecap:butt;stroke-linejoin:miter;stroke-opacity:0"
         id="path4183" />
    </a>
    <a
       xlink:href="tableroMenu.jsp?territorio=Passaic"
       xlink:title="Passaic"
       id="linkPassaic">
      <path
         d="M 145.59204,167.97721 L 137.13491,148.24392 L 142.77299,105.9583 L 134.31587,90.923409 L 167.20469,83.405967 L 198.21414,64.612358 L 244.25849,59.913955 L 268.69018,49.577471 L 275.26794,59.913955 L 265.87113,70.250441 L 271.50922,75.888524 L 270.56954,90.923409 L 278.08698,97.501171 L 277.1473,105.01862 L 282.78538,112.53606 L 276.20762,126.63127 L 280.90602,146.36456 L 260.23305,154.82168 L 232.98232,148.24392 L 187.87766,167.03753 L 145.59204,167.97721 z "
         style="fill:#000000;fill-opacity:0;fill-rule:evenodd;stroke:#000000;stroke-width:0.54881418px;stroke-linecap:butt;stroke-linejoin:miter;stroke-opacity:0"
         id="path5154" />
    </a>
    <a
       xlink:href="tableroMenu.jsp?territorio=Bergen"
       xlink:title="Bergen"
       id="linkBergen">
      <path
         d="M 276.20762,1.6537673 L 407.76288,-0.22559361 L 373.93439,97.501171 L 364.53758,97.501171 L 353.26142,81.526607 L 341.04557,77.767884 L 323.19164,82.466287 L 315.6742,89.04405 L 310.03612,89.983729 L 307.21707,100.32022 L 303.45836,121.93287 L 298.75995,135.08839 L 290.30283,136.02807 L 279.96634,120.99318 L 280.90602,108.77734 L 276.20762,103.13925 L 276.20762,95.621812 L 271.50922,85.285326 L 273.38858,73.06948 L 268.69018,69.310762 L 279.96634,58.034596 L 273.38858,55.215552 L 273.38858,48.63779 L 278.08698,43.939388 L 278.08698,31.723542 L 289.36315,17.628335 L 276.20762,1.6537673 z "
         style="fill:#000000;fill-opacity:0;fill-rule:evenodd;stroke:#000000;stroke-width:0.54881418px;stroke-linecap:butt;stroke-linejoin:miter;stroke-opacity:0"
         id="path6125" />
    </a>
    <a
       xlink:href="tableroMenu.jsp?territorio=Essex"
       xlink:title="Essex"
       id="linkEssex">
      <path
         d="M -1.9377945,342.75777 L -0.058433602,195.22794 L 30.011341,177.37401 L 45.046228,177.37401 L 63.839838,193.34858 C 63.839838,193.34858 102.36674,186.77082 106.12546,189.58986 C 109.88418,192.4089 145.59204,202.74538 145.59204,202.74538 L 112.70322,268.52301 L 111.76354,296.71343 L 95.788971,300.47215 L 79.814407,318.32608 L 66.658876,347.45618 L 45.985909,364.37043 L 32.830382,348.39586 L -1.9377945,342.75777 z "
         style="fill:#000000;fill-opacity:0;fill-rule:evenodd;stroke:#000000;stroke-width:0.54881418px;stroke-linecap:butt;stroke-linejoin:miter;stroke-opacity:0"
         id="path7096" />
    </a>
    <a
       xlink:href="tableroMenu.jsp?territorio=Hackensack"
       xlink:title="Hackensack"
       id="linkHackensack">
      <path
         d="M 280.90602,126.63127 L 293.12187,138.84711 L 302.51867,135.08839 L 309.09644,101.2599 L 321.31229,86.225011 L 341.98525,79.647243 L 351.38206,80.586928 L 363.5979,98.440856 L 372.99471,99.380536 L 366.41694,115.35511 L 357.95982,132.26935 L 353.26142,133.20903 L 353.26142,143.54551 L 343.86461,167.03753 L 335.40749,178.31369 L 335.40749,189.58986 L 329.76941,190.52954 L 323.19164,202.74538 L 295.00123,187.7105 L 273.38858,187.7105 L 283.72506,171.73593 L 273.38858,157.64073 L 280.90602,142.60584 L 280.90602,126.63127 z "
         style="fill:#000000;fill-opacity:0;fill-rule:evenodd;stroke:#000000;stroke-width:0.54881418px;stroke-linecap:butt;stroke-linejoin:miter;stroke-opacity:0"
         id="path8067" />
    </a>
    <a
       xlink:href="tableroMenu.jsp?territorio=Bloomfield"
       xlink:title="Bloomfield"
       id="linkBloomfield">
      <path
         d="M 145.59204,170.79625 L 190.6967,167.03753 L 234.86168,148.24392 L 261.17273,157.64073 L 271.50922,152.00264 L 271.50922,162.33912 L 277.1473,170.79625 L 273.38858,184.89145 L 240.49976,187.7105 L 232.98232,200.86602 L 221.70616,200.86602 L 217.94743,212.14219 L 215.12839,219.65963 L 203.85223,234.69452 L 207.61095,251.60877 L 202.91255,276.04046 L 203.85223,281.67855 L 221.70616,284.49758 L 221.70616,291.07535 L 201.03318,302.35151 L 192.57606,312.688 L 192.57606,328.66257 L 185.9983,330.54193 L 174.72213,335.24033 L 169.08405,323.02449 L 173.78245,298.59279 L 167.20469,291.07535 L 139.95396,296.71343 L 139.95396,305.17056 L 122.10003,307.04992 L 113.6429,292.01503 L 113.6429,271.34206 L 147.4714,200.86602 L 145.59204,170.79625 z "
         style="fill:#000000;fill-opacity:0;fill-rule:evenodd;stroke:#000000;stroke-width:0.54881418px;stroke-linecap:butt;stroke-linejoin:miter;stroke-opacity:0"
         id="path9038" />
    </a>
    <path
       d="M 225.46487,289.19599 L 223.58551,280.73887 L 207.61095,280.73887"
       style="fill:none;fill-rule:evenodd;stroke:#000000;stroke-width:0.54881418px;stroke-linecap:butt;stroke-linejoin:miter;stroke-opacity:1"
       id="path10009" />
    <a
       xlink:href="tableroMenu.jsp?territorio=JerseyCity"
       xlink:title="JerseyCity"
       id="linkJerseyCity">
      <path
         d="M 211.36967,257.24685 L 207.61095,238.45324 L 223.58551,212.14219 L 230.16328,212.14219 L 224.52519,204.62475 L 233.922,203.68506 L 242.37912,194.28826 L 273.38858,188.65018 L 295.00123,189.58986 L 326.95037,205.56443 L 284.66474,276.98014 L 292.18219,276.98014 L 288.42347,295.77375 L 270.56954,289.19599 L 240.49976,295.77375 L 224.52519,292.01503 L 222.64584,280.73887 L 205.73159,280.73887 L 205.73159,276.04046 L 211.36967,257.24685 z "
         style="fill:#000000;fill-opacity:0;fill-rule:evenodd;stroke:#000000;stroke-width:0.54881418px;stroke-linecap:butt;stroke-linejoin:miter;stroke-opacity:0"
         id="path10011" />
    </a>
    <a
       xlink:href="tableroMenu.jsp?territorio=Union"
       xlink:title="Union"
       id="linkUnion">
      <path
         d="M -0.058433602,342.75777 L 33.770063,349.33554 L 45.985909,367.18946 L 33.770063,386.92276 L 45.985909,413.23381 L 45.985909,424.50997 L 59.141434,425.44965 L 60.081114,438.60518 L 58.201755,440.48454 L 65.719197,449.88134 L 68.538241,455.51943 L 80.754087,451.76071 L 82.633446,456.45911 L 67.598561,471.494 L 63.839838,490.2876 L 65.719197,516.59866 L 67.598561,524.1161 L 65.719197,536.33195 L 59.141434,528.81451 L 52.563672,516.59866 L 31.890702,528.81451 L 26.252619,519.4177 L 20.614537,522.23674 L -0.99811406,521.29706 L -0.058433602,342.75777 z "
         style="fill:#000000;fill-opacity:0;fill-rule:evenodd;stroke:#000000;stroke-width:0.54881418px;stroke-linecap:butt;stroke-linejoin:miter;stroke-opacity:0"
         id="path10986" />
    </a>
    <a
       xlink:href="tableroMenu.jsp?territorio=Newark"
       xlink:title="Newark"
       id="linkNewark">
      <path
         d="M 113.6429,297.65311 L 122.10003,309.86895 L 136.19523,309.86895 L 144.65236,298.59279 L 169.08405,298.59279 L 171.90309,304.23088 L 165.32533,335.24033 L 168.14437,352.15458 L 166.26501,367.18946 L 152.1698,383.16403 L 145.59204,370.00851 L 129.61747,362.49106 L 128.67779,365.31011 L 144.65236,373.76723 L 150.29044,381.28467 L 141.83331,396.31956 L 121.16035,381.28467 L 120.22067,384.10371 L 144.65236,402.89732 L 133.37619,418.87189 L 125.85874,416.05285 L 116.46194,429.20838 L 113.6429,430.14806 L 113.6429,437.6655 L 105.18578,446.12263 L 100.48737,446.12263 L 83.573125,455.51943 L 80.754087,451.76071 L 74.176324,457.39879 L 68.538241,455.51943 L 64.779517,448.00199 L 56.322395,443.30358 L 56.322395,427.32901 L 47.86527,423.57029 L 45.046228,409.47508 L 33.770063,385.98307 L 45.985909,364.37043 L 68.538241,345.57682 L 79.814407,318.32608 L 94.849291,303.29119 L 113.6429,297.65311 z "
         style="fill:#000000;fill-opacity:0;fill-rule:evenodd;stroke:#000000;stroke-width:0.54881418px;stroke-linecap:butt;stroke-linejoin:miter;stroke-opacity:0"
         id="path11957" />
    </a>
    <a
       xlink:href="tableroMenu.jsp?territorio=Hudson"
       xlink:title="Hudson"
       id="linkHudson">
      <path
         d="M 225.46487,292.01503 L 240.49976,297.65311 L 270.56954,292.01503 L 287.48379,296.71343 L 278.08698,341.81809 L 261.17273,341.81809 L 261.17273,343.69745 L 276.20762,345.57682 L 276.20762,350.27522 L 265.87113,350.27522 L 248.01721,376.58627 L 236.74104,365.31011 L 232.98232,369.06883 L 237.68072,373.76723 L 232.04264,373.76723 L 232.04264,387.86244 L 222.64584,379.40531 L 218.88711,382.22435 C 218.88711,382.22435 232.04264,385.98307 231.10296,391.62116 C 230.16328,397.25924 223.58551,403.837 223.58551,403.837 L 237.68072,414.17349 L 236.74104,419.81157 L 213.24903,407.59572 L 211.36967,403.837 L 202.91255,404.77669 L 232.04264,420.75125 L 231.10296,427.32901 C 231.10296,427.32901 216.06807,418.87189 212.30935,418.87189 C 208.55063,418.87189 183.17925,407.59572 183.17925,407.59572 L 183.17925,413.23381 L 202.91255,420.75125 L 214.18871,434.84646 L 201.03318,446.12263 L 174.72213,440.48454 L 169.08405,450.82102 L 147.4714,452.70039 L 138.0746,454.57975 L 143.71268,439.54486 L 155.92852,418.87189 L 158.74756,418.87189 L 158.74756,411.35445 L 175.66181,384.10371 L 173.78245,383.16403 L 184.11893,364.37043 L 191.63638,357.79266 L 186.93798,357.79266 L 184.11893,343.69745 L 186.93798,335.24033 L 198.21414,333.36097 L 200.0935,310.80864 L 225.46487,292.01503 z "
         style="fill:#000000;fill-opacity:0;fill-rule:evenodd;stroke:#000000;stroke-width:0.54881418px;stroke-linecap:butt;stroke-linejoin:miter;stroke-opacity:0"
         id="path12928" />
    </a>
    <a
       xlink:href="tableroMenu.jsp?territorio=VanCortlandPark"
       xlink:title="VanCortlandPark"
       id="linkVanCortlandPark">
      <path
         d="M 441.59138,5.4124892 L 496.09285,24.206098 L 478.23892,40.180666 L 482.93732,58.974275 L 492.33413,59.913955 L 490.45476,70.250441 L 478.23892,85.285326 L 475.41988,85.285326 L 462.26435,95.621812 L 452.86755,120.0535 L 427.49618,120.0535 L 422.79777,117.23446 L 445.35011,74.948845 L 421.85809,61.793314 L 441.59138,5.4124892 z "
         style="fill:#000000;fill-opacity:0;fill-rule:evenodd;stroke:#000000;stroke-width:0.54881418px;stroke-linecap:butt;stroke-linejoin:miter;stroke-opacity:0"
         id="path13899" />
    </a>
    <a
       xlink:href="tableroMenu.jsp?territorio=BronxRiver"
       xlink:title="BronxRiver"
       id="linkBronxRiver">
      <path
         d="M 416.22001,161.39944 L 425.61681,166.09785 L 432.19457,157.64073 L 454.74691,160.45976 L 456.62627,145.42488 L 474.4802,150.12328 L 479.1786,134.14871 L 487.63572,134.14871 L 487.63572,128.51063 L 521.46422,124.75191 L 524.28326,121.93287 L 531.8007,126.63127 L 536.49911,118.17414 L 536.49911,107.83766 L 544.95623,93.742453 L 536.49911,70.250441 L 540.25783,60.853635 L 551.53398,54.275873 L 551.53398,42.999708 L 533.68007,36.421944 L 528.04199,21.387057 L 516.76582,16.688655 L 506.42933,25.145779 L 495.15317,25.145779 L 481.99764,34.542583 L 483.877,57.094916 L 487.63572,62.732999 L 494.21349,60.853635 L 479.1786,84.345646 L 465.08339,93.742453 L 451.92787,120.99318 L 425.61681,120.99318 L 419.03905,117.23446 L 412.46129,136.96775 L 416.22001,161.39944 z "
         style="fill:#000000;fill-opacity:0;fill-rule:evenodd;stroke:#000000;stroke-width:0.54881418px;stroke-linecap:butt;stroke-linejoin:miter;stroke-opacity:0"
         id="path14870" />
    </a>
    <a
       xlink:href="tableroMenu.jsp?territorio=PothamBay"
       xlink:title="PothamBay"
       id="linkPothamBay">
      <path
         d="M 561.87051,128.51063 L 547.77527,128.51063 L 542.13719,129.45031 L 533.68007,127.57095 L 535.55943,106.89798 L 535.55943,106.89798 L 545.89591,95.621812 L 538.37847,74.009165 L 541.19751,62.732999 L 551.53398,54.275873 L 553.41333,43.939388 L 591.94025,56.155231 L 602.27673,64.612358 L 602.27673,76.828204 L 594.75929,82.466287 L 594.75929,94.682133 L 606.97513,128.51063 L 604.15609,132.26935 L 592.87993,116.29478 L 593.81961,108.77734 L 588.18153,99.380536 L 582.54346,114.41542 L 561.87051,88.10437 L 561.87051,79.647243 L 556.23237,79.647243 L 561.87051,128.51063 z "
         style="fill:#000000;fill-opacity:0;fill-rule:evenodd;stroke:#000000;stroke-width:0.54881418px;stroke-linecap:butt;stroke-linejoin:miter;stroke-opacity:0"
         id="path15843" />
    </a>
    <a
       xlink:href="tableroMenu.jsp?territorio=ThrogsNeck"
       xlink:title="ThrogsNeck"
       id="linkThrogsNeck">
      <path
         d="M 523.34358,177.37401 L 513.0071,170.79625 L 499.85157,153.882 L 501.73093,140.72648 L 513.0071,125.69159 L 524.28326,119.11382 L 541.19751,134.14871 L 552.47365,127.57095 L 561.87051,131.32967 L 565.62922,154.82168 L 573.14666,152.00264 L 586.30217,171.73593 L 579.72442,176.43433 L 593.81961,184.89145 L 593.81961,189.58986 L 563.74986,171.73593 L 544.95623,178.31369 L 541.19751,185.83113 L 534.61975,184.89145 L 530.86102,175.49465 L 530.86102,157.64073 L 523.34358,177.37401 z "
         style="fill:#000000;fill-opacity:0;fill-rule:evenodd;stroke:#000000;stroke-width:0.54881418px;stroke-linecap:butt;stroke-linejoin:miter;stroke-opacity:0"
         id="path16814" />
    </a>
    <a
       xlink:href="tableroMenu.jsp?territorio=RiskersIsland"
       xlink:title="RiskersIsland"
       id="linkRiskersIsland">
      <path
         d="M 414.34065,163.27881 L 424.67713,167.03753 L 433.13426,155.76136 L 452.86755,161.39944 L 459.44531,145.42488 L 473.54051,150.12328 L 481.05796,131.32967 L 487.63572,135.08839 L 488.5754,129.45031 L 512.06742,122.87255 L 497.03253,152.94232 L 519.58486,175.49465 L 520.52454,188.65018 L 512.06742,189.58986 L 508.30869,177.37401 L 495.15317,177.37401 L 497.03253,183.0121 L 492.33413,194.28826 L 483.877,191.46922 L 475.41988,191.46922 L 464.14371,185.83113 L 451.92787,188.65018 L 439.71202,201.8057 L 425.61681,192.4089 L 421.85809,192.4089 L 414.34065,181.13274 L 414.34065,163.27881 z "
         style="fill:#000000;fill-opacity:0;fill-rule:evenodd;stroke:#000000;stroke-width:0.54881418px;stroke-linecap:butt;stroke-linejoin:miter;stroke-opacity:0"
         id="path17785" />
    </a>
    <a
       xlink:href="tableroMenu.jsp?territorio=SouthManhattan"
       xlink:title="SouthManhattan"
       id="linkSouthManhattan">
      <path
         d="M 316.61388,292.01503 L 305.33772,354.03394 L 311.91548,361.55138 L 319.43292,361.55138 L 331.64877,350.27522 L 359.83918,342.75777 L 364.53758,318.32608 L 316.61388,292.01503 z "
         style="fill:#000000;fill-opacity:0;fill-rule:evenodd;stroke:#000000;stroke-width:0.54881418px;stroke-linecap:butt;stroke-linejoin:miter;stroke-opacity:0"
         id="path18756" />
    </a>
    <a
       xlink:href="tableroMenu.jsp?territorio=WestManhattan"
       xlink:title="WestManhattan"
       id="linkWestManhattan">
      <path
         d="M 316.61388,290.13567 L 317.55356,276.98014 L 382.39151,156.70105 L 388.0296,159.52008 L 388.0296,179.25337 L 382.39151,191.46922 L 334.46781,282.61822 L 339.16621,291.07535 L 333.52813,300.47215 L 316.61388,290.13567 z "
         style="fill:#000000;fill-opacity:0;fill-rule:evenodd;stroke:#000000;stroke-width:0.54881418px;stroke-linecap:butt;stroke-linejoin:miter;stroke-opacity:0"
         id="path19727" />
    </a>
    <a
       xlink:href="tableroMenu.jsp?territorio=Harlem"
       xlink:title="Harlem"
       id="linkHarlem">
      <path
         d="M 423.73745,64.612358 L 443.47074,77.767884 L 442.53106,85.285326 L 423.73745,110.6567 L 414.34065,136.96775 L 414.34065,180.19306 L 418.09937,192.4089 L 436.89298,201.8057 L 422.79777,226.23739 L 407.76288,221.539 L 401.18512,223.41836 L 387.08992,215.90091 L 392.728,200.86602 L 380.51215,191.46922 L 384.27087,179.25337 L 387.08992,160.45976 L 382.39151,156.70105 L 398.36608,120.0535 L 396.48672,111.59638 L 413.40097,83.405967 L 413.40097,73.06948 L 423.73745,64.612358 z "
         style="fill:#000000;fill-opacity:0;fill-rule:evenodd;stroke:#000000;stroke-width:0.54881418px;stroke-linecap:butt;stroke-linejoin:miter;stroke-opacity:0"
         id="path20698" />
    </a>
    <a
       xlink:href="tableroMenu.jsp?territorio=CentralPark"
       xlink:title="CentralPark"
       id="linkCentralPark">
      <path
         d="M 365.47726,316.44672 L 337.28685,299.53247 L 342.92493,287.31663 L 335.40749,281.67855 L 383.33119,193.34858 L 392.728,199.92634 L 384.27087,215.90091 L 400.24544,224.35804 L 406.8232,243.15164 L 377.69311,279.79918 L 374.87407,275.10078 L 364.53758,291.07535 L 365.47726,316.44672 z "
         style="fill:#000000;fill-opacity:0;fill-rule:evenodd;stroke:#000000;stroke-width:0.54881418px;stroke-linecap:butt;stroke-linejoin:miter;stroke-opacity:0"
         id="path21669" />
    </a>
    <a
       xlink:href="tableroMenu.jsp?territorio=EastQueens"
       xlink:title="EastQueens"
       id="linkEastQueens">
      <path
         d="M 644.56236,225.29772 L 711.27967,277.91982 L 712.21935,296.71343 L 700.94319,315.50704 L 672.75275,324.90384 L 654.89884,324.90384 L 643.62268,320.20544 L 637.98461,315.50704 L 651.14012,312.688 L 656.7782,303.29119 L 656.7782,288.25631 L 646.44172,255.36749 L 638.92429,249.72941 L 644.56236,225.29772 z "
         style="fill:#000000;fill-opacity:0;fill-rule:evenodd;stroke:#000000;stroke-width:0.54881418px;stroke-linecap:butt;stroke-linejoin:miter;stroke-opacity:0"
         id="path22640" />
    </a>
    <a
       xlink:href="tableroMenu.jsp?territorio=QueensVillage"
       xlink:title="QueensVillage"
       id="linkQueensVillage">
      <path
         d="M 582.54346,416.99253 L 624.82909,415.11317 L 632.34653,420.75125 L 673.69243,415.11317 L 678.39088,394.4402 C 678.39088,394.4402 676.51147,347.45618 675.57179,341.81809 C 674.63211,336.18001 671.81307,326.7832 671.81307,326.7832 L 655.83852,324.90384 L 643.62268,321.14512 C 643.62268,321.14512 630.46717,334.30065 626.70845,334.30065 C 622.94973,334.30065 600.39737,342.75777 600.39737,342.75777 L 562.81018,354.97362 L 583.48314,407.59572 L 582.54346,416.99253 z "
         style="fill:#000000;fill-opacity:0;fill-rule:evenodd;stroke:#000000;stroke-width:0.54881418px;stroke-linecap:butt;stroke-linejoin:miter;stroke-opacity:0"
         id="path23611" />
    </a>
    <a
       xlink:href="tableroMenu.jsp?territorio=Flushing"
       xlink:title="Flushing"
       id="linkFlushing">
      <path
         d="M 617.3116,217.78027 L 636.10525,248.78973 L 642.683,253.48813 L 656.7782,289.19599 L 656.7782,303.29119 L 653.01948,309.86895 L 635.16557,316.44672 L 629.52749,310.80864 L 632.34653,301.41183 L 624.82909,287.31663 L 594.75929,297.65311 L 549.65462,298.59279 L 542.13719,290.13567 L 540.25783,282.61822 L 530.86102,269.4627 L 525.22294,262.88494 L 530.86102,250.66909 L 522.4039,248.78973 L 520.52454,242.21196 L 522.4039,232.81516 L 518.64518,226.23739 L 511.12774,226.23739 L 507.36901,223.41836 L 514.88645,215.90091 L 514.88645,207.44379 L 522.4039,207.44379 L 535.55943,200.86602 L 535.55943,211.20251 L 542.13719,214.96123 L 547.77527,209.32315 L 544.95623,201.8057 L 559.05141,193.34858 L 578.78474,201.8057 L 590.06089,204.62475 L 590.06089,211.20251 L 608.85448,211.20251 L 607.91481,200.86602 L 613.55288,200.86602 C 613.55288,200.86602 618.25128,203.68506 618.25128,208.38347 C 618.25128,213.08187 618.25128,219.65963 617.3116,217.78027 z "
         style="fill:#000000;fill-opacity:0;fill-rule:evenodd;stroke:#000000;stroke-width:0.54881418px;stroke-linecap:butt;stroke-linejoin:miter;stroke-opacity:0"
         id="path24582" />
    </a>
    <a
       xlink:href="tableroMenu.jsp?territorio=Jamaica"
       xlink:title="Jamaica"
       id="linkJamaica">
      <path
         d="M 567.50858,376.58627 L 515.82614,398.19892 L 504.54997,398.19892 L 499.85157,393.50052 L 494.21349,370.00851 L 497.97221,359.67202 L 513.0071,359.67202 L 510.18806,349.33554 L 508.30869,338.99905 L 487.63572,310.80864 L 476.35956,313.62768 L 466.02307,287.31663 L 512.06742,278.8595 L 518.64518,276.98014 L 519.58486,262.88494 L 526.16262,261.00557 L 534.61975,274.1611 L 545.89591,298.59279 L 591.94025,298.59279 C 591.94025,298.59279 620.13069,281.67855 623.88941,286.37695 C 627.64813,291.07535 630.46717,301.41183 630.46717,301.41183 L 624.82909,305.17056 L 640.80365,319.26576 L 622.01005,335.24033 L 598.51801,342.75777 L 563.74986,356.85298 L 567.50858,376.58627 z "
         style="fill:#000000;fill-opacity:0;fill-rule:evenodd;stroke:#000000;stroke-width:0.54881418px;stroke-linecap:butt;stroke-linejoin:miter;stroke-opacity:0"
         id="path25553" />
    </a>
    <a
       xlink:href="tableroMenu.jsp?territorio=LaGuardia"
       xlink:title="LaGuardia"
       id="linkLaGuardia">
      <path
         d="M 394.60736,268.52301 L 412.46129,242.21196 L 406.8232,237.51356 L 414.34065,226.23739 L 418.09937,233.75484 L 443.47074,209.32315 L 462.26435,219.65963 L 459.44531,225.29772 L 467.90243,232.81516 L 467.90243,239.39293 L 477.29924,240.33261 L 477.29924,228.11676 L 489.51508,225.29772 L 513.0071,242.21196 L 511.12774,248.78973 L 503.61029,249.72941 L 507.36901,258.18653 L 518.64518,263.82462 L 519.58486,276.04046 L 503.61029,279.79918 L 462.26435,284.49758 L 458.50563,270.40238 L 441.59138,272.28174 L 441.59138,276.98014 L 427.49618,278.8595 L 425.61681,275.10078 L 411.52161,281.67855 L 394.60736,268.52301 z "
         style="fill:#000000;fill-opacity:0;fill-rule:evenodd;stroke:#000000;stroke-width:0.54881418px;stroke-linecap:butt;stroke-linejoin:miter;stroke-opacity:0"
         id="path26524" />
    </a>
    <a
       xlink:href="tableroMenu.jsp?territorio=LongIslandCity"
       xlink:title="LongIslandCity"
       id="linkLongIslandCity">
      <path
         d="M 459.44531,390.68148 L 440.6517,358.73234 L 431.2549,350.27522 L 425.61681,335.24033 L 419.03905,316.44672 L 407.76288,311.74832 L 403.06448,305.17056 L 388.0296,296.71343 L 376.75343,301.41183 L 376.75343,291.07535 L 393.66768,271.34206 L 410.58193,280.73887 L 423.73745,274.1611 L 426.55649,278.8595 L 443.47074,277.91982 L 443.47074,276.04046 C 443.47074,276.04046 458.50563,267.58334 460.38499,272.28174 C 462.26435,276.98014 477.29924,315.50704 477.29924,315.50704 L 488.5754,313.62768 L 508.30869,338.99905 L 508.30869,352.15458 L 513.0071,357.79266 L 512.06742,362.49106 L 505.48965,357.79266 L 499.85157,358.73234 L 495.15317,369.06883 L 481.99764,378.46563 L 459.44531,390.68148 z "
         style="fill:#000000;fill-opacity:0;fill-rule:evenodd;stroke:#000000;stroke-width:0.54881418px;stroke-linecap:butt;stroke-linejoin:miter;stroke-opacity:0"
         id="path27495" />
    </a>
    <a
       xlink:href="tableroMenu.jsp?territorio=JFK"
       xlink:title="JFK"
       id="linkJFK">
      <path
         d="M 503.61029,398.19892 L 515.82614,396.31956 L 570.32762,375.64659 L 583.48314,410.41477 L 579.72442,417.93221 L 592.87993,419.81157 L 622.94973,416.99253 L 641.74332,418.87189 L 674.63211,416.05285 L 678.39088,440.48454 L 658.65756,448.94166 L 657.71788,460.21783 L 651.14012,465.85591 L 651.14012,472.43368 L 625.76877,481.83048 L 625.76877,492.16696 L 619.19101,492.16696 L 619.19101,485.5892 L 557.17205,447.06231 L 537.43879,448.00199 L 538.37847,453.64007 L 519.58486,453.64007 L 518.64518,444.24326 L 512.06742,444.24326 L 501.73093,432.9671 L 513.0071,427.32901 L 510.18806,409.47508 L 505.48965,409.47508 L 503.61029,398.19892 z "
         style="fill:#000000;fill-opacity:0;fill-rule:evenodd;stroke:#000000;stroke-width:0.54881418px;stroke-linecap:butt;stroke-linejoin:miter;stroke-opacity:0"
         id="path28466" />
    </a>
    <a
       xlink:href="tableroMenu.jsp?territorio=RockawayPeninsula"
       xlink:title="RockawayPeninsula"
       id="linkRockawayPeninsula">
      <path
         d="M 407.76288,595.53181 L 408.70256,612.44604 L 457.56595,599.29053 L 457.56595,603.98893 L 504.54997,584.25566 L 538.37847,567.34142 L 573.14666,555.12553 L 597.57833,551.36682 L 617.3116,542.90971 L 642.683,544.78907 L 653.01948,537.27163 L 664.29563,537.27163 L 663.35596,524.1161 L 650.20044,508.14153 L 641.74332,511.90026 L 626.70845,504.38281 L 625.76877,494.98601 L 621.07037,494.04633 L 614.49256,500.62409 L 619.19101,508.14153 L 622.94973,514.7193 L 622.94973,530.69387 L 614.49256,524.1161 L 618.25128,512.83994 L 608.85448,512.83994 L 602.27673,521.29706 L 590.06089,528.81451 L 578.78474,529.75419 L 568.44826,542.90971 L 531.8007,559.82393 L 521.46422,556.06521 L 485.75636,580.49694 L 464.14371,582.3763 L 459.44531,587.0747 L 447.22946,588.95405 L 440.6517,586.13502 L 407.76288,595.53181 z "
         style="fill:#000000;fill-opacity:0;fill-rule:evenodd;stroke:#000000;stroke-width:0.54881418px;stroke-linecap:butt;stroke-linejoin:miter;stroke-opacity:0"
         id="path29437" />
    </a>
    <a
       xlink:href="tableroMenu.jsp?territorio=PrincessBay"
       xlink:title="PrincessBay"
       id="linkPrincessBay">
      <path
         d="M 42.227187,600.23021 C 47.86527,600.23021 72.296959,610.56669 72.296959,610.56669 L 84.512805,606.80797 L 109.88418,613.38572 L 127.73811,609.62701 L 160.62692,618.08412 L 151.23012,623.72225 L 151.23012,638.75713 L 115.52226,659.43008 L 104.2461,663.1888 L 98.608015,663.1888 L 84.512805,680.10308 L 72.296959,675.40463 L 52.563672,693.2586 L 39.408145,693.2586 L 26.252619,700.77603 L 11.217732,701.71571 L 4.6399689,684.80148 L 14.976454,667.88719 L 24.373258,661.30944 L 24.373258,639.69681 L 17.795495,630.30001 L 17.795495,621.84289 L 42.227187,600.23021 z "
         style="fill:#000000;fill-opacity:0;fill-rule:evenodd;stroke:#000000;stroke-width:0.54881418px;stroke-linecap:butt;stroke-linejoin:miter;stroke-opacity:0"
         id="path30408" />
    </a>
    <a
       xlink:href="tableroMenu.jsp?territorio=PortRichmond"
       xlink:title="PortRichmond"
       id="linkPortRichmond">
      <path
         d="M 82.633446,469.61464 L 98.608015,453.64007 L 140.89363,467.73527 L 161.56661,460.21783 L 176.60149,461.15751 L 189.75702,453.64007 L 210.42999,454.57975 L 225.46487,448.00199 L 241.43944,455.51943 L 241.43944,484.64952 L 259.29337,514.7193 L 246.13785,523.17642 L 232.98232,517.53834 L 225.46487,517.53834 L 211.36967,510.96058 L 182.23957,511.90026 L 144.65236,516.59866 L 120.22067,496.86537 L 108.9445,491.22728 L 82.633446,469.61464 z "
         style="fill:#000000;fill-opacity:0;fill-rule:evenodd;stroke:#000000;stroke-width:0.54881418px;stroke-linecap:butt;stroke-linejoin:miter;stroke-opacity:0"
         id="path31379" />
    </a>
    <a
       xlink:href="tableroMenu.jsp?territorio=LaTourettePark"
       xlink:title="LaTourettePark"
       id="linkLaTourettePark">
      <path
         d="M 65.719197,608.68733 L 85.45249,605.86829 L 111.76354,613.38572 L 127.73811,608.68733 L 154.04916,614.3254 L 169.08405,600.23021 L 169.08405,590.83341 L 185.9983,575.79854 L 187.87766,566.40174 L 201.03318,566.40174 L 218.88711,556.06521 L 227.34424,540.09067 L 244.25849,534.45259 L 250.83625,527.87482 L 235.80136,519.4177 L 224.52519,528.81451 L 208.55063,524.1161 L 186.93798,534.45259 L 177.54117,552.3065 L 161.56661,557.94457 L 154.98884,565.46206 L 154.04916,571.10014 L 136.19523,573.91918 L 129.61747,558.88425 L 138.0746,551.36682 L 138.0746,538.21131 L 133.37619,534.45259 L 133.37619,524.1161 L 120.22067,513.77962 L 115.52226,514.7193 L 116.46194,525.99546 L 97.668336,561.70335 L 99.547695,578.61758 L 92.030253,583.31598 L 91.090573,591.77309 L 78.874727,594.59213 L 65.719197,608.68733 z "
         style="fill:#000000;fill-opacity:0;fill-rule:evenodd;stroke:#000000;stroke-width:0.54881418px;stroke-linecap:butt;stroke-linejoin:miter;stroke-opacity:0"
         id="path32352" />
    </a>
    <a
       xlink:href="tableroMenu.jsp?territorio=MarinersHarbor"
       xlink:title="MarinersHarbor"
       id="linkMarinersHarbor">
      <path
         d="M 81.693766,473.37336 L 104.2461,488.40825 L 98.608015,494.98601 L 101.42705,507.20185 L 115.52226,515.65898 L 116.46194,525.05578 L 98.608015,562.64303 L 98.608015,577.6779 L 88.271529,588.95405 L 77.935042,594.59213 L 69.477921,607.74765 L 56.322395,603.98893 L 61.960478,593.65245 L 64.779517,574.85886 L 68.538241,561.70335 L 71.35728,545.72875 L 79.814407,532.57322 L 70.4176,519.4177 L 71.35728,506.26217 L 81.693766,506.26217 L 81.693766,502.50345 L 73.236644,500.62409 L 81.693766,473.37336 z "
         style="fill:#000000;fill-opacity:0;fill-rule:evenodd;stroke:#000000;stroke-width:0.54881418px;stroke-linecap:butt;stroke-linejoin:miter;stroke-opacity:0"
         id="path33323" />
    </a>
    <a
       xlink:href="tableroMenu.jsp?territorio=NewSpringville"
       xlink:title="NewSpringville"
       id="linkNewSpringville">
      <path
         d="M 103.30642,489.34793 L 107.06514,494.04633 L 125.85874,500.62409 L 145.59204,517.53834 L 173.78245,515.65898 L 189.75702,510.96058 L 214.18871,510.96058 L 231.10296,520.35738 L 223.58551,528.81451 L 207.61095,521.29706 L 186.93798,536.33195 L 176.60149,550.42714 L 164.38565,552.3065 L 154.04916,561.70335 L 154.04916,572.03982 L 139.95396,574.85886 L 131.49683,559.82393 L 139.01428,552.3065 L 139.01428,538.21131 L 123.03971,513.77962 L 115.52226,513.77962 L 103.30642,507.20185 L 97.668336,498.74473 L 103.30642,489.34793 z "
         style="fill:#000000;fill-opacity:0;fill-rule:evenodd;stroke:#000000;stroke-width:0.54881418px;stroke-linecap:butt;stroke-linejoin:miter;stroke-opacity:0"
         id="path34296" />
    </a>
    <a
       xlink:href="tableroMenu.jsp?territorio=SouthBeach"
       xlink:title="SouthBeach"
       id="linkSouthBeach">
      <path
         d="M 157.80788,646.27456 L 175.66181,625.60161 L 195.3951,607.74765 L 207.61095,597.41117 L 256.47433,543.84939 L 263.99178,522.23674 L 258.35369,516.59866 L 249.89657,519.4177 L 252.71561,528.81451 L 245.19817,536.33195 L 229.2236,538.21131 C 229.2236,538.21131 223.58551,555.12553 219.82679,556.06521 C 216.06807,557.00489 199.15382,567.34142 199.15382,567.34142 L 187.87766,568.2811 L 187.87766,574.85886 L 170.02373,593.65245 L 170.02373,599.29053 L 154.98884,615.26508 L 158.74756,617.14444 L 170.02373,627.48097 L 158.74756,636.87777 L 153.10948,636.87777 L 157.80788,646.27456 z "
         style="fill:#000000;fill-opacity:0;fill-rule:evenodd;stroke:#000000;stroke-width:0.54881418px;stroke-linecap:butt;stroke-linejoin:miter;stroke-opacity:0"
         id="path35269" />
    </a>
    <a
       xlink:href="tableroMenu.jsp?territorio=LowerNewYorkBay"
       xlink:title="LowerNewYorkBay"
       id="linkLowerNewYorkBay">
      <path
         d="M 286.54411,457.39879 L 317.55356,470.55432 L 363.5979,508.14153 L 363.5979,534.45259 L 350.44238,535.39227 L 364.53758,547.60811 L 382.39151,547.60811 L 381.45183,559.82393 L 388.0296,559.82393 L 388.0296,572.03982 L 381.45183,572.03982 L 341.04557,578.61758 L 327.89005,578.61758 L 312.85516,571.10014 L 312.85516,566.40174 L 324.13132,558.88425 L 345.74398,563.58271 L 341.98525,553.24618 L 329.76941,554.18586 L 330.70909,538.21131 L 311.91548,525.99546 L 286.54411,517.53834 L 276.20762,498.74473 L 276.20762,480.8908 L 286.54411,457.39879 z "
         style="fill:#000000;fill-opacity:0;fill-rule:evenodd;stroke:#000000;stroke-width:0.54881418px;stroke-linecap:butt;stroke-linejoin:miter;stroke-opacity:0"
         id="path36240" />
    </a>
    <a
       xlink:href="tableroMenu.jsp?territorio=SheepsheadBay"
       xlink:title="SheepsheadBay"
       id="linkSheepsheadBay">
      <path
         d="M 364.53758,515.65898 L 393.66768,510.02089 L 400.24544,501.56377 L 424.67713,509.08121 L 432.19457,509.08121 L 457.56595,521.29706 L 476.35956,523.17642 L 489.51508,560.76361 L 462.26435,568.2811 L 455.68659,547.60811 L 442.53106,551.36682 L 443.47074,559.82393 L 419.03905,554.18586 L 417.15969,569.22078 L 389.90895,571.10014 L 388.0296,558.88425 L 378.63279,555.12553 L 381.45183,547.60811 L 366.41694,549.48746 L 352.32174,535.39227 L 365.47726,533.5129 L 364.53758,515.65898 z "
         style="fill:#000000;fill-opacity:0;fill-rule:evenodd;stroke:#000000;stroke-width:0.54881418px;stroke-linecap:butt;stroke-linejoin:miter;stroke-opacity:0"
         id="path37213" />
    </a>
    <a
       xlink:href="tableroMenu.jsp?territorio=BoroughPark"
       xlink:title="BoroughPark"
       id="linkBoroughPark">
      <path
         d="M 318.49324,470.55432 L 334.46781,449.88134 L 343.86461,454.57975 L 368.29631,447.06231 L 368.29631,444.24326 L 387.08992,435.78614 L 387.08992,465.85591 L 395.54704,465.85591 L 402.1248,479.01144 L 398.36608,480.8908 L 398.36608,502.50345 L 391.78832,511.90026 L 365.47726,515.65898 L 362.65823,507.20185 L 318.49324,470.55432 z "
         style="fill:#000000;fill-opacity:0;fill-rule:evenodd;stroke:#000000;stroke-width:0.54881418px;stroke-linecap:butt;stroke-linejoin:miter;stroke-opacity:0"
         id="path38184" />
    </a>
    <a
       xlink:href="tableroMenu.jsp?territorio=Greenpoint"
       xlink:title="Greenpoint"
       id="linkGreenpoint">
      <path
         d="M 450.0485,395.37988 L 404.94384,360.6117 L 377.69311,363.43075 L 366.41694,350.27522 L 379.57247,319.26576 L 378.63279,303.29119 L 385.21055,297.65311 L 402.1248,302.35151 L 405.88352,311.74832 L 419.97873,316.44672 L 426.55649,338.05937 L 450.0485,371.88787 L 450.98819,375.64659 L 461.32467,389.7418 L 461.32467,398.19892 L 450.0485,395.37988 z "
         style="fill:#000000;fill-opacity:0;fill-rule:evenodd;stroke:#000000;stroke-width:0.54881418px;stroke-linecap:butt;stroke-linejoin:miter;stroke-opacity:0"
         id="path39159" />
    </a>
    <a
       xlink:href="tableroMenu.jsp?territorio=BrooklynHeigths"
       xlink:title="BrooklynHeights"
       id="linkBrooklynHeights">
      <path
         d="M 328.82973,371.88787 L 336.34717,353.09426 L 355.14078,353.09426 L 365.47726,347.45618 L 381.45183,366.24978 L 404.94384,362.49106 L 428.43586,380.34499 L 424.67713,383.16403 L 404.00417,379.40531 L 385.21055,396.31956 L 360.77886,393.50052 L 353.26142,390.68148 L 338.22653,385.98307 L 339.16621,379.40531 L 328.82973,371.88787 z "
         style="fill:#000000;fill-opacity:0;fill-rule:evenodd;stroke:#000000;stroke-width:0.54881418px;stroke-linecap:butt;stroke-linejoin:miter;stroke-opacity:0"
         id="path40130" />
    </a>
    <a
       xlink:href="tableroMenu.jsp?territorio=Kensington"
       xlink:title="Kensington"
       id="linkKensington">
      <path
         d="M 399.30576,476.1924 L 406.8232,476.1924 L 459.44531,432.9671 L 451.92787,399.1386 L 428.43586,380.34499 L 423.73745,383.16403 L 402.1248,377.52595 L 385.21055,397.25924 L 361.71854,392.56083 L 368.29631,403.837 L 356.08046,429.20838 L 363.5979,433.90678 L 367.35662,440.48454 L 381.45183,433.90678 L 386.15024,438.60518 L 386.15024,450.82102 L 388.96928,452.70039 L 388.96928,465.85591 L 398.36608,464.91623 L 399.30576,476.1924 z "
         style="fill:#000000;fill-opacity:0;fill-rule:evenodd;stroke:#000000;stroke-width:0.54881418px;stroke-linecap:butt;stroke-linejoin:miter;stroke-opacity:0"
         id="path41101" />
    </a>
    <a
       xlink:href="tableroMenu.jsp?territorio=UpperNewYorkBay"
       xlink:title="UpperNewYorkBay"
       id="linkUpperNewYorkBay">
      <path
         d="M 317.55356,470.55432 L 335.40749,449.88134 L 343.86461,456.45911 L 365.47726,449.88134 L 363.5979,434.84646 L 355.14078,427.32901 L 366.41694,409.47508 L 361.71854,391.62116 L 354.2011,391.62116 L 338.22653,385.98307 L 338.22653,380.34499 L 326.01068,373.76723 L 326.01068,381.28467 L 303.45836,395.37988 L 304.39804,402.89732 L 315.6742,416.99253 L 329.76941,416.05285 L 315.6742,425.44965 L 296.88059,441.42422 L 298.75995,448.94166 L 286.54411,455.51943 L 317.55356,470.55432 z "
         style="fill:#000000;fill-opacity:0;fill-rule:evenodd;stroke:#000000;stroke-width:0.54881418px;stroke-linecap:butt;stroke-linejoin:miter;stroke-opacity:0"
         id="path42078" />
    </a>
    <a
       xlink:href="tableroMenu.jsp?territorio=EastNewYork"
       xlink:title="EastNewYork"
       id="linkEastNewYork">
      <path
         d="M 401.18512,502.50345 L 397.4264,481.83048 L 425.61681,464.91623 L 457.56595,432.02742 L 452.86755,397.25924 L 465.08339,389.7418 L 471.66116,390.68148 C 471.66116,390.68148 494.21349,365.31011 494.21349,370.00851 C 494.21349,374.70691 508.30869,409.47508 508.30869,409.47508 L 513.0071,424.50997 L 504.54997,435.78614 L 511.12774,449.88134 L 511.12774,455.51943 L 505.48965,455.51943 L 499.85157,453.64007 L 491.39444,453.64007 L 497.97221,464.91623 L 492.33413,471.494 L 487.63572,471.494 L 469.7818,492.16696 L 461.32467,492.16696 L 474.4802,513.77962 L 459.44531,521.29706 L 432.19457,507.20185 L 421.85809,510.96058 L 401.18512,502.50345 z "
         style="fill:#000000;fill-opacity:0;fill-rule:evenodd;stroke:#000000;stroke-width:0.54881418px;stroke-linecap:butt;stroke-linejoin:miter;stroke-opacity:0"
         id="path43051" />
    </a>
    <a
       xlink:href="tableroMenu.jsp?territorio=JamaicaBay"
       xlink:title="JamaicaBay"
       id="linkJamaicaBay">
      <path
         d="M 592.87993,486.52888 L 611.67352,507.20185 L 592.87993,518.47802 L 578.78474,523.17642 L 570.32762,520.35738 L 570.32762,531.63355 L 561.87051,522.23674 L 558.11173,535.39227 L 540.25783,540.09067 L 543.07687,546.66843 L 533.68007,546.66843 L 527.1023,541.97003 L 531.8007,533.5129 L 518.64518,530.69387 L 513.0071,537.27163 L 502.67061,526.93514 L 512.06742,512.83994 L 497.97221,497.80505 L 484.81668,505.32249 L 487.63572,489.34793 L 500.79125,480.8908 L 516.76582,469.61464 L 526.16262,463.03687 L 529.92134,465.85591 L 532.74038,475.25272 L 540.25783,475.25272 L 544.01655,465.85591 L 555.29269,463.97655 L 559.99115,474.31304 L 569.38794,479.01144 L 586.30217,481.83048 L 592.87993,486.52888 z "
         style="fill:#000000;fill-opacity:0;fill-rule:evenodd;stroke:#000000;stroke-width:0.54881418px;stroke-linecap:butt;stroke-linejoin:miter;stroke-opacity:0"
         id="path44022" />
    </a>
  </g>
  <g
     id="layer3">
    <path
       d="M 155.81035 65.919769 A 14.553714 11.129311 0 1 1  126.70292,65.919769 A 14.553714 11.129311 0 1 1  155.81035 65.919769 z"
       transform="translate(74.480769,-35.956233)"
       style="fill:#ff0000;fill-opacity:1;stroke:#000000;stroke-opacity:1"
       id="ejercitoPaterson" />
    <path
       d="M 155.81035 65.919769 A 14.553714 11.129311 0 1 1  126.70292,65.919769 A 14.553714 11.129311 0 1 1  155.81035 65.919769 z"
       transform="translate(-113.00532,-23.114724)"
       style="fill:#ff0000;fill-opacity:1;stroke:#000000;stroke-opacity:1"
       id="ejercitoRingwood" />
    <path
       d="M 155.81035 65.919769 A 14.553714 11.129311 0 1 1  126.70292,65.919769 A 14.553714 11.129311 0 1 1  155.81035 65.919769 z"
       transform="translate(-59.070959,66.775858)"
       style="fill:#ff0000;fill-opacity:1;stroke:#000000;stroke-opacity:1"
       id="ejercitoMorris" />
    <path
       d="M 155.81035 65.919769 A 14.553714 11.129311 0 1 1  126.70292,65.919769 A 14.553714 11.129311 0 1 1  155.81035 65.919769 z"
       transform="translate(92.458879,47.941644)"
       style="fill:#ff0000;fill-opacity:1;stroke:#000000;stroke-opacity:1"
       id="ejercitoPasaic" />
    <path
       d="M 155.81035 65.919769 A 14.553714 11.129311 0 1 1  126.70292,65.919769 A 14.553714 11.129311 0 1 1  155.81035 65.919769 z"
       transform="translate(-83.897885,187.48607)"
       style="fill:#ff0000;fill-opacity:1;stroke:#000000;stroke-opacity:1"
       id="ejercitoEssex" />
    <path
       d="M 155.81035 65.919769 A 14.553714 11.129311 0 1 1  126.70292,65.919769 A 14.553714 11.129311 0 1 1  155.81035 65.919769 z"
       transform="translate(25.683017,169.50795)"
       style="fill:#ff0000;fill-opacity:1;stroke:#000000;stroke-opacity:1"
       id="ejercitoBloomfield" />
    <path
       d="M 155.81035 65.919769 A 14.553714 11.129311 0 1 1  126.70292,65.919769 A 14.553714 11.129311 0 1 1  155.81035 65.919769 z"
       transform="translate(134.40782,163.51524)"
       style="fill:#ff0000;fill-opacity:1;stroke:#000000;stroke-opacity:1"
       id="ejercitoJerseyCity" />
    <path
       d="M 155.81035 65.919769 A 14.553714 11.129311 0 1 1  126.70292,65.919769 A 14.553714 11.129311 0 1 1  155.81035 65.919769 z"
       transform="translate(-119.85412,349.28912)"
       style="fill:#ff0000;fill-opacity:1;stroke:#000000;stroke-opacity:1"
       id="ejercitoUnion" />
    <path
       d="M 155.81035 65.919769 A 14.553714 11.129311 0 1 1  126.70292,65.919769 A 14.553714 11.129311 0 1 1  155.81035 65.919769 z"
       transform="translate(-33.387938,290.21816)"
       style="fill:#ff0000;fill-opacity:1;stroke:#000000;stroke-opacity:1"
       id="ejercitoNewark" />
    <path
       d="M 155.81035 65.919769 A 14.553714 11.129311 0 1 1  126.70292,65.919769 A 14.553714 11.129311 0 1 1  155.81035 65.919769 z"
       transform="translate(63.351452,309.90849)"
       style="fill:#ff0000;fill-opacity:1;stroke:#000000;stroke-opacity:1"
       id="ejercitoHudson" />
    <path
       d="M 155.81035 65.919769 A 14.553714 11.129311 0 1 1  126.70292,65.919769 A 14.553714 11.129311 0 1 1  155.81035 65.919769 z"
       transform="translate(9.4171059,409.21617)"
       style="fill:#ff0000;fill-opacity:1;stroke:#000000;stroke-opacity:1"
       id="ejercitoPortRichmond" />
    <path
       d="M 155.81035 65.919769 A 14.553714 11.129311 0 1 1  126.70292,65.919769 A 14.553714 11.129311 0 1 1  155.81035 65.919769 z"
       transform="translate(-58.214861,434.0431)"
       style="fill:#ff0000;fill-opacity:1;stroke:#000000;stroke-opacity:1"
       id="ejercitoMarinersHarbor" />
    <path
       d="M 155.81035 65.919769 A 14.553714 11.129311 0 1 1  126.70292,65.919769 A 14.553714 11.129311 0 1 1  155.81035 65.919769 z"
       transform="translate(-15.409821,446.88461)"
       style="fill:#ff0000;fill-opacity:1;stroke:#000000;stroke-opacity:1"
       id="ejercitoNewSpringville" />
    <path
       d="M 155.81035 65.919769 A 14.553714 11.129311 0 1 1  126.70292,65.919769 A 14.553714 11.129311 0 1 1  155.81035 65.919769 z"
       transform="translate(29.10742,502.53117)"
       style="fill:#ff0000;fill-opacity:1;stroke:#000000;stroke-opacity:1"
       id="ejercitoLaTourettePark" />
    <path
       d="M 155.81035 65.919769 A 14.553714 11.129311 0 1 1  126.70292,65.919769 A 14.553714 11.129311 0 1 1  155.81035 65.919769 z"
       transform="translate(-41.948946,577.86804)"
       style="fill:#ff0000;fill-opacity:1;stroke:#000000;stroke-opacity:1"
       id="ejercitoPrincessBay" />
    <path
       d="M 155.81035 65.919769 A 14.553714 11.129311 0 1 1  126.70292,65.919769 A 14.553714 11.129311 0 1 1  155.81035 65.919769 z"
       transform="translate(199.47147,-31.675733)"
       style="fill:#ff0000;fill-opacity:1;stroke:#000000;stroke-opacity:1"
       id="ejercitoBergen" />
    <path
       d="M 155.81035 65.919769 A 14.553714 11.129311 0 1 1  126.70292,65.919769 A 14.553714 11.129311 0 1 1  155.81035 65.919769 z"
       transform="translate(180.63726,73.624665)"
       style="fill:#ff0000;fill-opacity:1;stroke:#000000;stroke-opacity:1"
       id="ejercitoHackensack" />
    <path
       d="M 155.81035 65.919769 A 14.553714 11.129311 0 1 1  126.70292,65.919769 A 14.553714 11.129311 0 1 1  155.81035 65.919769 z"
       transform="translate(319.32559,11.985407)"
       style="fill:#ff0000;fill-opacity:1;stroke:#000000;stroke-opacity:1"
       id="ejercitoVanCrtlandPark" />
    <path
       d="M 155.81035 65.919769 A 14.553714 11.129311 0 1 1  126.70292,65.919769 A 14.553714 11.129311 0 1 1  155.81035 65.919769 z"
       transform="translate(367.26723,15.409811)"
       style="fill:#ff0000;fill-opacity:1;stroke:#000000;stroke-opacity:1"
       id="ejercitoBronxRiver" />
    <path
       d="M 155.81035 65.919769 A 14.553714 11.129311 0 1 1  126.70292,65.919769 A 14.553714 11.129311 0 1 1  155.81035 65.919769 z"
       transform="translate(428.90649,7.7049033)"
       style="fill:#ff0000;fill-opacity:1;stroke:#000000;stroke-opacity:1"
       id="ejercitoPolhamBay" />
    <path
       d="M 155.81035 65.919769 A 14.553714 11.129311 0 1 1  126.70292,65.919769 A 14.553714 11.129311 0 1 1  155.81035 65.919769 z"
       transform="translate(337.30371,97.595487)"
       style="fill:#ff0000;fill-opacity:1;stroke:#000000;stroke-opacity:1"
       id="ejercitoRiskersIsland" />
    <path
       d="M 155.81035 65.919769 A 14.553714 11.129311 0 1 1  126.70292,65.919769 A 14.553714 11.129311 0 1 1  155.81035 65.919769 z"
       transform="translate(383.53315,101.01989)"
       style="fill:#ff0000;fill-opacity:1;stroke:#000000;stroke-opacity:1"
       id="ejercitoThrogsNeck" />
    <path
       d="M 155.81035 65.919769 A 14.553714 11.129311 0 1 1  126.70292,65.919769 A 14.553714 11.129311 0 1 1  155.81035 65.919769 z"
       transform="translate(255.97413,84.753974)"
       style="fill:#ff0000;fill-opacity:1;stroke:#000000;stroke-opacity:1"
       id="ejercitoHarlem" />
    <path
       d="M 155.81035 65.919769 A 14.553714 11.129311 0 1 1  126.70292,65.919769 A 14.553714 11.129311 0 1 1  155.81035 65.919769 z"
       transform="translate(213.16909,127.55901)"
       style="fill:#ff0000;fill-opacity:1;stroke:#000000;stroke-opacity:1"
       id="ejercitoWestManhattan" />
    <path
       d="M 155.81035 65.919769 A 14.553714 11.129311 0 1 1  126.70292,65.919769 A 14.553714 11.129311 0 1 1  155.81035 65.919769 z"
       transform="translate(216.59349,233.71552)"
       style="fill:#ff0000;fill-opacity:1;stroke:#000000;stroke-opacity:1"
       id="ejercitoCentralPark" />
    <path
       d="M 155.81035 65.919769 A 14.553714 11.129311 0 1 1  126.70292,65.919769 A 14.553714 11.129311 0 1 1  155.81035 65.919769 z"
       transform="translate(198.61538,281.65716)"
       style="fill:#ff0000;fill-opacity:1;stroke:#000000;stroke-opacity:1"
       id="ejercitoSouthManhattan" />
    <path
       d="M 155.81035 65.919769 A 14.553714 11.129311 0 1 1  126.70292,65.919769 A 14.553714 11.129311 0 1 1  155.81035 65.919769 z"
       transform="translate(319.32559,178.92507)"
       style="fill:#ff0000;fill-opacity:1;stroke:#000000;stroke-opacity:1"
       id="ejercitoLaGuardia" />
    <path
       d="M 155.81035 65.919769 A 14.553714 11.129311 0 1 1  126.70292,65.919769 A 14.553714 11.129311 0 1 1  155.81035 65.919769 z"
       transform="translate(443.4602,166.93965)"
       style="fill:#ff0000;fill-opacity:1;stroke:#000000;stroke-opacity:1"
       id="ejercitoFlushing" />
    <path
       d="M 155.81035 65.919769 A 14.553714 11.129311 0 1 1  126.70292,65.919769 A 14.553714 11.129311 0 1 1  155.81035 65.919769 z"
       transform="translate(528.21419,201.18368)"
       style="fill:#ff0000;fill-opacity:1;stroke:#000000;stroke-opacity:1"
       id="ejercitoEastQueens" />
    <path
       d="M 155.81035 65.919769 A 14.553714 11.129311 0 1 1  126.70292,65.919769 A 14.553714 11.129311 0 1 1  155.81035 65.919769 z"
       transform="translate(315.04509,279.94496)"
       style="fill:#ff0000;fill-opacity:1;stroke:#000000;stroke-opacity:1"
       id="ejercitoLongIslandCity" />
    <path
       d="M 155.81035 65.919769 A 14.553714 11.129311 0 1 1  126.70292,65.919769 A 14.553714 11.129311 0 1 1  155.81035 65.919769 z"
       transform="translate(255.97413,259.39853)"
       style="fill:#ff0000;fill-opacity:1;stroke:#000000;stroke-opacity:1"
       id="ejercitoGreenpoint" />
    <path
       d="M 155.81035 65.919769 A 14.553714 11.129311 0 1 1  126.70292,65.919769 A 14.553714 11.129311 0 1 1  155.81035 65.919769 z"
       transform="translate(397.23076,293.64256)"
       style="fill:#ff0000;fill-opacity:1;stroke:#000000;stroke-opacity:1"
       id="ejercitoJamaica" />
    <path
       d="M 155.81035 65.919769 A 14.553714 11.129311 0 1 1  126.70292,65.919769 A 14.553714 11.129311 0 1 1  155.81035 65.919769 z"
       transform="translate(510.23607,307.34019)"
       style="fill:#ff0000;fill-opacity:1;stroke:#000000;stroke-opacity:1"
       id="ejercitoQueensVillage" />
    <path
       d="M 155.81035 65.919769 A 14.553714 11.129311 0 1 1  126.70292,65.919769 A 14.553714 11.129311 0 1 1  155.81035 65.919769 z"
       transform="translate(255.97413,309.90848)"
       style="fill:#ff0000;fill-opacity:1;stroke:#000000;stroke-opacity:1"
       id="ejercitoBrooklynHeights" />
    <path
       d="M 155.81035 65.919769 A 14.553714 11.129311 0 1 1  126.70292,65.919769 A 14.553714 11.129311 0 1 1  155.81035 65.919769 z"
       transform="translate(190.05436,345.86472)"
       style="fill:#ff0000;fill-opacity:1;stroke:#000000;stroke-opacity:1"
       id="ejercitoUpperNewYorkBay" />
    <path
       d="M 155.81035 65.919769 A 14.553714 11.129311 0 1 1  126.70292,65.919769 A 14.553714 11.129311 0 1 1  155.81035 65.919769 z"
       transform="translate(280.80106,363.84283)"
       style="fill:#ff0000;fill-opacity:1;stroke:#000000;stroke-opacity:1"
       id="ejercitoKensington" />
    <path
       d="M 155.81035 65.919769 A 14.553714 11.129311 0 1 1  126.70292,65.919769 A 14.553714 11.129311 0 1 1  155.81035 65.919769 z"
       transform="translate(324.4622,387.81365)"
       style="fill:#ff0000;fill-opacity:1;stroke:#000000;stroke-opacity:1"
       id="ejercitoEastNewYork" />
    <path
       d="M 155.81035 65.919769 A 14.553714 11.129311 0 1 1  126.70292,65.919769 A 14.553714 11.129311 0 1 1  155.81035 65.919769 z"
       transform="translate(422.05768,361.27453)"
       style="fill:#ff0000;fill-opacity:1;stroke:#000000;stroke-opacity:1"
       id="ejercitoJFK" />
    <path
       d="M 155.81035 65.919769 A 14.553714 11.129311 0 1 1  126.70292,65.919769 A 14.553714 11.129311 0 1 1  155.81035 65.919769 z"
       transform="translate(233.71551,397.23077)"
       style="fill:#ff0000;fill-opacity:1;stroke:#000000;stroke-opacity:1"
       id="ejercitoBoroughPark" />
    <path
       d="M 155.81035 65.919769 A 14.553714 11.129311 0 1 1  126.70292,65.919769 A 14.553714 11.129311 0 1 1  155.81035 65.919769 z"
       transform="translate(193.47877,485.40915)"
       style="fill:#ff0000;fill-opacity:1;stroke:#000000;stroke-opacity:1"
       id="ejercitoLowerNewYorkBay" />
    <path
       d="M 155.81035 65.919769 A 14.553714 11.129311 0 1 1  126.70292,65.919769 A 14.553714 11.129311 0 1 1  155.81035 65.919769 z"
       transform="translate(281.65716,452.87731)"
       style="fill:#ff0000;fill-opacity:1;stroke:#000000;stroke-opacity:1"
       id="ejercitoSheepsheadBay" />
    <path
       d="M 155.81035 65.919769 A 14.553714 11.129311 0 1 1  126.70292,65.919769 A 14.553714 11.129311 0 1 1  155.81035 65.919769 z"
       transform="translate(394.66245,414.35278)"
       style="fill:#ff0000;fill-opacity:1;stroke:#000000;stroke-opacity:1"
       id="ejercitoJamaicaBay" />
    <path
       d="M 155.81035 65.919769 A 14.553714 11.129311 0 1 1  126.70292,65.919769 A 14.553714 11.129311 0 1 1  155.81035 65.919769 z"
       transform="translate(474.27983,477.70424)"
       style="fill:#ff0000;fill-opacity:1;stroke:#000000;stroke-opacity:1"
       id="ejercitoRockawayPeninsula" />
    <path
       d="M 155.81035 65.919769 A 14.553714 11.129311 0 1 1  126.70292,65.919769 A 14.553714 11.129311 0 1 1  155.81035 65.919769 z"
       transform="translate(75.336867,529.92639)"
       style="fill:#ff0000;fill-opacity:1;stroke:#000000;stroke-opacity:1"
       id="ejercitoSouthBeach" />
  </g>
  <g
     id="layer2">
    <text
       x="21.402519"
       y="47.085548"
       style="font-size:12px;font-style:normal;font-weight:normal;fill:#000000;fill-opacity:1;stroke:none;stroke-width:1px;stroke-linecap:butt;stroke-linejoin:miter;stroke-opacity:1;font-family:Bitstream Vera Sans"
       id="numRingwood"
       xml:space="preserve"><tspan
         x="21.402519"
         y="47.085548"
         id="tspan2502">00</tspan></text>
    <text
       x="208.88858"
       y="34.244034"
       style="font-size:12px;font-style:normal;font-weight:normal;fill:#000000;fill-opacity:1;stroke:none;stroke-width:1px;stroke-linecap:butt;stroke-linejoin:miter;stroke-opacity:1;font-family:Bitstream Vera Sans"
       id="text2702"
       xml:space="preserve"><tspan
         x="208.88858"
         y="34.244034"
         id="tspan2704">00</tspan></text>
    <text
       x="75.336868"
       y="136.12003"
       style="font-size:12px;font-style:normal;font-weight:normal;fill:#000000;fill-opacity:1;stroke:none;stroke-width:1px;stroke-linecap:butt;stroke-linejoin:miter;stroke-opacity:1;font-family:Bitstream Vera Sans"
       id="numMorris"
       xml:space="preserve"><tspan
         x="75.336868"
         y="136.12003"
         id="tspan2711">00</tspan></text>
    <text
       x="226.86671"
       y="117.28582"
       style="font-size:12px;font-style:normal;font-weight:normal;fill:#000000;fill-opacity:1;stroke:none;stroke-width:1px;stroke-linecap:butt;stroke-linejoin:miter;stroke-opacity:1;font-family:Bitstream Vera Sans"
       id="numPassaic"
       xml:space="preserve"><tspan
         x="226.86671"
         y="117.28582"
         id="tspan2715">00</tspan></text>
    <text
       x="333.87933"
       y="37.668442"
       style="font-size:12px;font-style:normal;font-weight:normal;fill:#000000;fill-opacity:1;stroke:none;stroke-width:1px;stroke-linecap:butt;stroke-linejoin:miter;stroke-opacity:1;font-family:Bitstream Vera Sans"
       id="numBergen"
       xml:space="preserve"><tspan
         x="333.87933"
         y="37.668442"
         id="tspan2719">00</tspan></text>
    <text
       x="315.0451"
       y="142.96884"
       style="font-size:12px;font-style:normal;font-weight:normal;fill:#000000;fill-opacity:1;stroke:none;stroke-width:1px;stroke-linecap:butt;stroke-linejoin:miter;stroke-opacity:1;font-family:Bitstream Vera Sans"
       id="numHackensack"
       xml:space="preserve"><tspan
         x="315.0451"
         y="142.96884"
         id="tspan2723">00</tspan></text>
    <text
       x="49.653847"
       y="257.68634"
       style="font-size:12px;font-style:normal;font-weight:normal;fill:#000000;fill-opacity:1;stroke:none;stroke-width:1px;stroke-linecap:butt;stroke-linejoin:miter;stroke-opacity:1;font-family:Bitstream Vera Sans"
       id="numEssex"
       xml:space="preserve"><tspan
         x="49.653847"
         y="257.68634"
         id="tspan2727">00</tspan></text>
    <text
       x="160.94696"
       y="238.85213"
       style="font-size:12px;font-style:normal;font-weight:normal;fill:#000000;fill-opacity:1;stroke:none;stroke-width:1px;stroke-linecap:butt;stroke-linejoin:miter;stroke-opacity:1;font-family:Bitstream Vera Sans"
       id="numBloomfield"
       xml:space="preserve"><tspan
         x="160.94696"
         y="238.85213"
         id="tspan2731">00</tspan></text>
    <text
       x="267.95953"
       y="232.85942"
       style="font-size:12px;font-style:normal;font-weight:normal;fill:#000000;fill-opacity:1;stroke:none;stroke-width:1px;stroke-linecap:butt;stroke-linejoin:miter;stroke-opacity:1;font-family:Bitstream Vera Sans"
       id="numJerseyCity"
       xml:space="preserve"><tspan
         x="267.95953"
         y="232.85942"
         id="tspan2735">00</tspan></text>
    <text
       x="15.409813"
       y="417.77719"
       style="font-size:12px;font-style:normal;font-weight:normal;fill:#000000;fill-opacity:1;stroke:none;stroke-width:1px;stroke-linecap:butt;stroke-linejoin:miter;stroke-opacity:1;font-family:Bitstream Vera Sans"
       id="numUnion"
       xml:space="preserve"><tspan
         x="15.409813"
         y="417.77719"
         id="tspan2739">00</tspan></text>
    <text
       x="100.1638"
       y="360.41843"
       style="font-size:12px;font-style:normal;font-weight:normal;fill:#000000;fill-opacity:1;stroke:none;stroke-width:1px;stroke-linecap:butt;stroke-linejoin:miter;stroke-opacity:1;font-family:Bitstream Vera Sans"
       id="numNewark"
       xml:space="preserve"><tspan
         x="100.1638"
         y="360.41843"
         id="tspan2743">00</tspan></text>
    <text
       x="198.61539"
       y="380.10876"
       style="font-size:12px;font-style:normal;font-weight:normal;fill:#000000;fill-opacity:1;stroke:none;stroke-width:1px;stroke-linecap:butt;stroke-linejoin:miter;stroke-opacity:1;font-family:Bitstream Vera Sans"
       id="numHudson"
       xml:space="preserve"><tspan
         x="198.61539"
         y="380.10876"
         id="tspan2747">00</tspan></text>
    <text
       x="143.82494"
       y="479.41644"
       style="font-size:12px;font-style:normal;font-weight:normal;fill:#000000;fill-opacity:1;stroke:none;stroke-width:1px;stroke-linecap:butt;stroke-linejoin:miter;stroke-opacity:1;font-family:Bitstream Vera Sans"
       id="numPortRichmond"
       xml:space="preserve"><tspan
         x="143.82494"
         y="479.41644"
         id="tspan2751">00</tspan></text>
    <text
       x="77.049072"
       y="503.3873"
       style="font-size:12px;font-style:normal;font-weight:normal;fill:#000000;fill-opacity:1;stroke:none;stroke-width:1px;stroke-linecap:butt;stroke-linejoin:miter;stroke-opacity:1;font-family:Bitstream Vera Sans"
       id="numMarinersHarbor"
       xml:space="preserve"><tspan
         x="77.049072"
         y="503.3873"
         id="tspan2755">00</tspan></text>
    <text
       x="119.85411"
       y="514.51654"
       style="font-size:12px;font-style:normal;font-weight:normal;fill:#000000;fill-opacity:1;stroke:none;stroke-width:1px;stroke-linecap:butt;stroke-linejoin:miter;stroke-opacity:1;font-family:Bitstream Vera Sans"
       id="numNewSpringville"
       xml:space="preserve"><tspan
         x="119.85411"
         y="514.51654"
         id="tspan2759">00</tspan></text>
    <text
       x="164.37135"
       y="572.73145"
       style="font-size:12px;font-style:normal;font-weight:normal;fill:#000000;fill-opacity:1;stroke:none;stroke-width:1px;stroke-linecap:butt;stroke-linejoin:miter;stroke-opacity:1;font-family:Bitstream Vera Sans"
       id="numLaTourettePark"
       xml:space="preserve"><tspan
         x="164.37135"
         y="572.73145"
         id="tspan2763">00</tspan></text>
    <text
       x="210.60078"
       y="597.55841"
       style="font-size:12px;font-style:normal;font-weight:normal;fill:#000000;fill-opacity:1;stroke:none;stroke-width:1px;stroke-linecap:butt;stroke-linejoin:miter;stroke-opacity:1;font-family:Bitstream Vera Sans"
       id="numSouthBeach"
       xml:space="preserve"><tspan
         x="210.60078"
         y="597.55841"
         id="tspan2767">00</tspan></text>
    <text
       x="94.171082"
       y="648.0683"
       style="font-size:12px;font-style:normal;font-weight:normal;fill:#000000;fill-opacity:1;stroke:none;stroke-width:1px;stroke-linecap:butt;stroke-linejoin:miter;stroke-opacity:1;font-family:Bitstream Vera Sans"
       id="text2769"
       xml:space="preserve"><tspan
         x="94.171082"
         y="648.0683"
         id="tspan2771">00</tspan></text>
    <text
       x="328.74271"
       y="554.7533"
       style="font-size:12px;font-style:normal;font-weight:normal;fill:#000000;fill-opacity:1;stroke:none;stroke-width:1px;stroke-linecap:butt;stroke-linejoin:miter;stroke-opacity:1;font-family:Bitstream Vera Sans"
       id="numLowerNewYorkBay"
       xml:space="preserve"><tspan
         x="328.74271"
         y="554.7533"
         id="tspan2775">00</tspan></text>
    <text
       x="415.20886"
       y="522.2215"
       style="font-size:12px;font-style:normal;font-weight:normal;fill:#000000;fill-opacity:1;stroke:none;stroke-width:1px;stroke-linecap:butt;stroke-linejoin:miter;stroke-opacity:1;font-family:Bitstream Vera Sans"
       id="numSheepsheadBay"
       xml:space="preserve"><tspan
         x="415.20886"
         y="522.2215"
         id="tspan2779">00</tspan></text>
    <text
       x="368.12335"
       y="467.43103"
       style="font-size:12px;font-style:normal;font-weight:normal;fill:#000000;fill-opacity:1;stroke:none;stroke-width:1px;stroke-linecap:butt;stroke-linejoin:miter;stroke-opacity:1;font-family:Bitstream Vera Sans"
       id="numBoroughPark"
       xml:space="preserve"><tspan
         x="368.12335"
         y="467.43103"
         id="tspan2783">00</tspan></text>
    <text
       x="324.46219"
       y="416.06497"
       style="font-size:12px;font-style:normal;font-weight:normal;fill:#000000;fill-opacity:1;stroke:none;stroke-width:1px;stroke-linecap:butt;stroke-linejoin:miter;stroke-opacity:1;font-family:Bitstream Vera Sans"
       id="numUpperNewYorkBay"
       xml:space="preserve"><tspan
         x="324.46219"
         y="416.06497"
         id="tspan2787">00</tspan></text>
    <text
       x="415.20889"
       y="433.18701"
       style="font-size:12px;font-style:normal;font-weight:normal;fill:#000000;fill-opacity:1;stroke:none;stroke-width:1px;stroke-linecap:butt;stroke-linejoin:miter;stroke-opacity:1;font-family:Bitstream Vera Sans"
       id="text2789"
       xml:space="preserve"><tspan
         x="415.20889"
         y="433.18701"
         id="tspan2791">00</tspan></text>
    <text
       x="391.23804"
       y="380.96484"
       style="font-size:12px;font-style:normal;font-weight:normal;fill:#000000;fill-opacity:1;stroke:none;stroke-width:1px;stroke-linecap:butt;stroke-linejoin:miter;stroke-opacity:1;font-family:Bitstream Vera Sans"
       id="numBrookynHeights"
       xml:space="preserve"><tspan
         x="391.23804"
         y="380.96484"
         id="tspan2795">00</tspan></text>
    <text
       x="391.23807"
       y="330.45493"
       style="font-size:12px;font-style:normal;font-weight:normal;fill:#000000;fill-opacity:1;stroke:none;stroke-width:1px;stroke-linecap:butt;stroke-linejoin:miter;stroke-opacity:1;font-family:Bitstream Vera Sans"
       id="numGreenpoint"
       xml:space="preserve"><tspan
         x="391.23807"
         y="330.45493"
         id="tspan2799">00</tspan></text>
    <text
       x="458.87003"
       y="459.72614"
       style="font-size:12px;font-style:normal;font-weight:normal;fill:#000000;fill-opacity:1;stroke:none;stroke-width:1px;stroke-linecap:butt;stroke-linejoin:miter;stroke-opacity:1;font-family:Bitstream Vera Sans"
       id="numEastNewYork"
       xml:space="preserve"><tspan
         x="458.87003"
         y="459.72614"
         id="tspan2803">00</tspan></text>
    <text
       x="609.54376"
       y="549.6167"
       style="font-size:12px;font-style:normal;font-weight:normal;fill:#000000;fill-opacity:1;stroke:none;stroke-width:1px;stroke-linecap:butt;stroke-linejoin:miter;stroke-opacity:1;font-family:Bitstream Vera Sans"
       id="numRockawayPeninsula"
       xml:space="preserve"><tspan
         x="609.54376"
         y="549.6167"
         id="tspan2807">00</tspan></text>
    <text
       x="529.92639"
       y="483.69696"
       style="font-size:12px;font-style:normal;font-weight:normal;fill:#000000;fill-opacity:1;stroke:none;stroke-width:1px;stroke-linecap:butt;stroke-linejoin:miter;stroke-opacity:1;font-family:Bitstream Vera Sans"
       id="numJamaicaBay"
       xml:space="preserve"><tspan
         x="529.92639"
         y="483.69696"
         id="tspan2811">00</tspan></text>
    <text
       x="556.46552"
       y="429.7626"
       style="font-size:12px;font-style:normal;font-weight:normal;fill:#000000;fill-opacity:1;stroke:none;stroke-width:1px;stroke-linecap:butt;stroke-linejoin:miter;stroke-opacity:1;font-family:Bitstream Vera Sans"
       id="numJFK"
       xml:space="preserve"><tspan
         x="556.46552"
         y="429.7626"
         id="tspan2815">oo</tspan></text>
    <text
       x="643.78778"
       y="378.39655"
       style="font-size:12px;font-style:normal;font-weight:normal;fill:#000000;fill-opacity:1;stroke:none;stroke-width:1px;stroke-linecap:butt;stroke-linejoin:miter;stroke-opacity:1;font-family:Bitstream Vera Sans"
       id="numQueensVillage"
       xml:space="preserve"><tspan
         x="643.78778"
         y="378.39655"
         id="tspan2819">00</tspan></text>
    <text
       x="532.49469"
       y="364.69897"
       style="font-size:12px;font-style:normal;font-weight:normal;fill:#000000;fill-opacity:1;stroke:none;stroke-width:1px;stroke-linecap:butt;stroke-linejoin:miter;stroke-opacity:1;font-family:Bitstream Vera Sans"
       id="numJamaica"
       xml:space="preserve"><tspan
         x="532.49469"
         y="364.69897"
         id="tspan2823">00</tspan></text>
    <text
       x="448.59683"
       y="348.43301"
       style="font-size:12px;font-style:normal;font-weight:normal;fill:#000000;fill-opacity:1;stroke:none;stroke-width:1px;stroke-linecap:butt;stroke-linejoin:miter;stroke-opacity:1;font-family:Bitstream Vera Sans"
       id="numLongIslandCity"
       xml:space="preserve"><tspan
         x="448.59683"
         y="348.43301"
         id="tspan2827">00</tspan></text>
    <text
       x="454.58951"
       y="249.12534"
       style="font-size:12px;font-style:normal;font-weight:normal;fill:#000000;fill-opacity:1;stroke:none;stroke-width:1px;stroke-linecap:butt;stroke-linejoin:miter;stroke-opacity:1;font-family:Bitstream Vera Sans"
       id="numLaGuardia"
       xml:space="preserve"><tspan
         x="454.58951"
         y="249.12534"
         id="tspan2831">00</tspan></text>
    <text
       x="577.86804"
       y="237.99603"
       style="font-size:12px;font-style:normal;font-weight:normal;fill:#000000;fill-opacity:1;stroke:none;stroke-width:1px;stroke-linecap:butt;stroke-linejoin:miter;stroke-opacity:1;font-family:Bitstream Vera Sans"
       id="numFlushing"
       xml:space="preserve"><tspan
         x="577.86804"
         y="237.99603"
         id="tspan2835">00</tspan></text>
    <text
       x="663.47815"
       y="271.38394"
       style="font-size:12px;font-style:normal;font-weight:normal;fill:#000000;fill-opacity:1;stroke:none;stroke-width:1px;stroke-linecap:butt;stroke-linejoin:miter;stroke-opacity:1;font-family:Bitstream Vera Sans"
       id="numEastQueens"
       xml:space="preserve"><tspan
         x="663.47815"
         y="271.38394"
         id="tspan2839">00</tspan></text>
    <text
       x="517.94098"
       y="169.50795"
       style="font-size:12px;font-style:normal;font-weight:normal;fill:#000000;fill-opacity:1;stroke:none;stroke-width:1px;stroke-linecap:butt;stroke-linejoin:miter;stroke-opacity:1;font-family:Bitstream Vera Sans"
       id="numThrogsNeck"
       xml:space="preserve"><tspan
         x="517.94098"
         y="169.50795"
         id="tspan2843">00</tspan></text>
    <text
       x="471.71155"
       y="167.79576"
       style="font-size:12px;font-style:normal;font-weight:normal;fill:#000000;fill-opacity:1;stroke:none;stroke-width:1px;stroke-linecap:butt;stroke-linejoin:miter;stroke-opacity:1;font-family:Bitstream Vera Sans"
       id="numRiskersIsland"
       xml:space="preserve"><tspan
         x="471.71155"
         y="167.79576"
         id="tspan2847">00</tspan></text>
    <text
       x="502.53113"
       y="85.610077"
       style="font-size:12px;font-style:normal;font-weight:normal;fill:#000000;fill-opacity:1;stroke:none;stroke-width:1px;stroke-linecap:butt;stroke-linejoin:miter;stroke-opacity:1;font-family:Bitstream Vera Sans"
       id="numBronxRiver"
       xml:space="preserve"><tspan
         x="502.53113"
         y="85.610077"
         id="tspan2851">00</tspan></text>
    <text
       x="562.45819"
       y="77.04908"
       style="font-size:12px;font-style:normal;font-weight:normal;fill:#000000;fill-opacity:1;stroke:none;stroke-width:1px;stroke-linecap:butt;stroke-linejoin:miter;stroke-opacity:1;font-family:Bitstream Vera Sans"
       id="numPolhamBay"
       xml:space="preserve"><tspan
         x="562.45819"
         y="77.04908"
         id="tspan2855">00</tspan></text>
    <text
       x="454.58954"
       y="82.185677"
       style="font-size:12px;font-style:normal;font-weight:normal;fill:#000000;fill-opacity:1;stroke:none;stroke-width:1px;stroke-linecap:butt;stroke-linejoin:miter;stroke-opacity:1;font-family:Bitstream Vera Sans"
       id="numVanCortlandPark"
       xml:space="preserve"><tspan
         x="454.58954"
         y="82.185677"
         id="tspan2859">00</tspan></text>
    <text
       x="391.2381"
       y="155.81035"
       style="font-size:12px;font-style:normal;font-weight:normal;fill:#000000;fill-opacity:1;stroke:none;stroke-width:1px;stroke-linecap:butt;stroke-linejoin:miter;stroke-opacity:1;font-family:Bitstream Vera Sans"
       id="numHarlem"
       xml:space="preserve"><tspan
         x="391.2381"
         y="155.81035"
         id="tspan2863">00</tspan></text>
    <text
       x="348.43301"
       y="197.75929"
       style="font-size:12px;font-style:normal;font-weight:normal;fill:#000000;fill-opacity:1;stroke:none;stroke-width:1px;stroke-linecap:butt;stroke-linejoin:miter;stroke-opacity:1;font-family:Bitstream Vera Sans"
       id="numWestManhattan"
       xml:space="preserve"><tspan
         x="348.43301"
         y="197.75929"
         id="tspan2867">00</tspan></text>
    <text
       x="351.85742"
       y="305.62802"
       style="font-size:12px;font-style:normal;font-weight:normal;fill:#000000;fill-opacity:1;stroke:none;stroke-width:1px;stroke-linecap:butt;stroke-linejoin:miter;stroke-opacity:1;font-family:Bitstream Vera Sans"
       id="numCentralPark"
       xml:space="preserve"><tspan
         x="351.85742"
         y="305.62802"
         id="tspan2871">00</tspan></text>
    <text
       x="333.02319"
       y="351.85745"
       style="font-size:12px;font-style:normal;font-weight:normal;fill:#000000;fill-opacity:1;stroke:none;stroke-width:1px;stroke-linecap:butt;stroke-linejoin:miter;stroke-opacity:1;font-family:Bitstream Vera Sans"
       id="numSouthManhattan"
       xml:space="preserve"><tspan
         x="333.02319"
         y="351.85745"
         id="tspan2875">00</tspan></text>
  </g>
</svg>
